<svg version="1.0" xmlns="http://www.w3.org/2000/svg"
 width="100" viewBox="0 0 1280.000000 640.000000"
 preserveAspectRatio="xMidYMid meet">
<g transform="translate(0.000000,640.000000) scale(0.100000,-0.100000)" stroke="none">
<path d="M4235 5299 c-187 -12 -354 -28 -555 -55 -671 -89 -859 -155 -2007
-705 l-392 -188 -438 -56 c-241 -31 -455 -61 -475 -66 -88 -23 -148 -157 -183
-409 -16 -117 -35 -427 -35 -595 l-1 -110 -32 -20 c-39 -25 -71 -80 -91 -159
-14 -57 -13 -77 9 -296 l24 -235 -30 -43 -31 -42 22 -45 c27 -57 125 -148 239
-223 l90 -59 273 -37 c150 -21 462 -65 693 -98 231 -34 471 -64 534 -67 l115
-6 12 -50 c7 -27 36 -96 64 -151 197 -392 691 -578 1190 -448 270 70 495 240
598 454 l47 97 186 -5 185 -5 33 42 33 42 337 -6 c185 -3 838 -10 1451 -15
613 -6 1543 -15 2065 -20 934 -10 952 -10 1065 10 63 11 124 22 135 25 17 3
29 -10 65 -73 53 -90 185 -229 279 -292 270 -181 643 -244 952 -159 235 64
435 219 545 421 l39 72 135 33 c95 23 254 47 540 82 l405 49 216 88 216 87 6
211 c3 126 12 249 22 306 28 157 7 286 -52 313 -15 7 -27 24 -33 51 -45 176
-182 437 -288 548 -144 151 -827 325 -1798 457 -321 44 -655 82 -929 106
l-179 15 -176 104 c-313 186 -695 393 -1067 579 -334 167 -765 368 -843 392
-265 83 -655 134 -1175 155 -288 11 -1831 11 -2010 -1z"/>
</g>
</svg>
